<svg xmlns="http://www.w3.org/2000/svg" width="24" height="24">
  <path fill="#4285F4" d="M23.5 12.3c0-.8-.1-1.6-.3-2.3H12v4.3h6.5c-.3 1.5-1.2 2.8-2.5 3.6v3h4c2.3-2.1 3.5-5.1 3.5-8.6z"></path>
  <path fill="#34A853" d="M12 24c3.2 0 5.9-1.1 7.8-3l-4-3c-1 .7-2.3 1.1-3.8 1.1C8 19.1 5.6 17 4.8 14.1H.7v3.1C2.6 21.8 6.9 24 12 24z"></path>
  <path fill="#FBBC05" d="M4.8 14.1C4.6 13.4 4.5 12.7 4.5 12s.1-1.4.3-2.1V6.8H.7C-.2 8.6-.2 10.3.7 12c1 2.8 3.4 4.9 6.6 4.9-.9-.6-1.8-1.4-2.5-2.3z"></path>
  <path fill="#EA4335" d="M12 4.9c1.8 0 3.4.6 4.6 1.9L20 3.4C17.9 1.2 15 0 12 0 6.9 0 2.6 2.2.7 6.1l4.1 3c.7-2.9 3.1-4.9 7.2-4.9z"></path>
</svg>
